<?xml version="1.0" encoding="UTF-8" standalone="no"?>
<svg width="1024" height="1024" viewBox="0 0 1024 1024" version="1.1" xmlns="http://www.w3.org/2000/svg">
    <!-- Background: Gray-900 (#111827) -->
    <rect x="0" y="0" width="1024" height="1024" fill="#111827"/>
    
    <!-- 
        Logo Path centered. 
        Shape Color: Primary-500 (#A855F7) for high contrast on dark.
    -->
    <g transform="translate(320, 320) scale(16)">
        <path d="M9 19v-6a2 2 0 00-2-2H5a2 2 0 00-2 2v6a2 2 0 002 2h2a2 2 0 002-2zm0 0V9a2 2 0 012-2h2a2 2 0 012 2v10m-6 0a2 2 0 002 2h2a2 2 0 002-2m0 0V5a2 2 0 012-2h2a2 2 0 012 2v14a2 2 0 01-2 2h-2a2 2 0 01-2-2z" 
              fill="none" 
              stroke="#A855F7" 
              stroke-width="1.5" 
              stroke-linecap="round" 
              stroke-linejoin="round"/>
    </g>
</svg>
